<svg width="139" height="139" viewBox="0 0 139 139" fill="none" xmlns="http://www.w3.org/2000/svg">
<path d="M107.562 33.9844C104.42 26.4819 99.1305 20.0754 92.3585 15.5697C85.5865 11.064 77.634 8.66016 69.5 8.66016C61.3661 8.66016 53.4135 11.064 46.6415 15.5697C39.8695 20.0754 34.5801 26.4819 31.4379 33.9844C24.6519 37.086 18.9 42.0721 14.8667 48.3492C10.8334 54.6264 8.68858 61.9302 8.6875 69.3914C8.63321 90.1328 26.0625 108.051 46.7713 108.594C53.1411 108.747 59.4521 107.344 65.1563 104.505V125.969C65.1563 127.121 65.6139 128.226 66.4285 129.04C67.2431 129.855 68.348 130.312 69.5 130.312C70.6521 130.312 71.7569 129.855 72.5715 129.04C73.3861 128.226 73.8438 127.121 73.8438 125.969V104.505C79.2438 107.186 85.1897 108.586 91.2188 108.594H92.207C112.938 108.051 130.372 90.1328 130.313 69.3914C130.311 61.9302 128.167 54.6264 124.133 48.3492C120.1 42.0721 114.348 37.086 107.562 33.9844ZM92.0061 99.9062C85.5285 100.075 79.1659 98.1728 73.8438 94.4765V72.2148L97.5064 60.3889C98.0169 60.1337 98.4722 59.7804 98.8461 59.3491C99.2201 58.9179 99.5055 58.4173 99.686 57.8758C99.8665 57.3343 99.9386 56.7625 99.8981 56.1932C99.8577 55.6238 99.7055 55.068 99.4502 54.5575C99.1949 54.0469 98.8416 53.5917 98.4104 53.2177C97.9792 52.8437 97.4785 52.5583 96.937 52.3778C96.3955 52.1973 95.8238 52.1252 95.2544 52.1657C94.6851 52.2062 94.1292 52.3584 93.6187 52.6136L73.8438 62.4739V47.7812C73.8438 46.6292 73.3861 45.5243 72.5715 44.7097C71.7569 43.8951 70.6521 43.4375 69.5 43.4375C68.348 43.4375 67.2431 43.8951 66.4285 44.7097C65.6139 45.5243 65.1563 46.6292 65.1563 47.7812V75.5052L45.3813 65.6123C44.3503 65.0968 43.1566 65.0119 42.063 65.3765C40.9694 65.741 40.0654 66.5251 39.5499 67.5561C39.0343 68.5872 38.9495 69.7808 39.314 70.8745C39.6786 71.9681 40.4626 72.8721 41.4937 73.3876L65.1563 85.2135V94.4439C59.8354 98.143 53.472 100.045 46.994 99.8736C30.8949 99.4881 17.3316 85.5284 17.375 69.4131C17.3709 63.3524 19.1855 57.4298 22.5842 52.4117C25.9829 47.3936 30.8091 43.5108 36.4386 41.2656C37.0034 41.0388 37.5142 40.6959 37.9379 40.2591C38.3616 39.8223 38.6888 39.3013 38.8983 38.7299C41.1895 32.4553 45.3542 27.0367 50.828 23.2082C56.3018 19.3797 62.8202 17.3263 69.5 17.3263C76.1799 17.3263 82.6983 19.3797 88.1721 23.2082C93.6459 27.0367 97.8105 32.4553 100.102 38.7299C100.311 39.3013 100.638 39.8223 101.062 40.2591C101.486 40.6959 101.997 41.0388 102.561 41.2656C108.19 43.512 113.016 47.3951 116.414 52.413C119.812 57.4308 121.628 63.3527 121.625 69.4131C121.668 85.5284 108.105 99.4881 92.0061 99.9062Z" fill="#6DA243"/>
</svg>
