<svg width="139" height="139" viewBox="0 0 139 139" fill="none" xmlns="http://www.w3.org/2000/svg">
<g clip-path="url(#clip0_26_280)">
<path fill-rule="evenodd" clip-rule="evenodd" d="M63.1546 14.2753C64.5307 14.2753 65.6358 15.3873 65.6358 16.7564C65.6358 16.8815 65.5872 16.9928 65.5663 17.1178H65.6358V71.0151C65.6358 72.3843 66.7478 73.4962 68.1169 73.4962H122.188C123.55 73.4962 124.662 74.6082 124.662 75.9774L124.648 76.0469L124.662 76.6376C124.662 111.075 96.7579 139 62.3276 139C27.9043 139 0 111.075 0 76.6376C0 42.1865 27.9043 14.2753 62.3276 14.2753L62.9948 14.2892C63.0504 14.3031 63.099 14.2753 63.1546 14.2753ZM77.3535 0C111.249 0.3475 138.652 27.7722 139.007 61.6882C139.007 63.0574 137.895 64.1693 136.526 64.1693C136.401 64.1693 136.289 64.1137 136.164 64.0998V64.1693H77.3535C76.6955 64.1693 76.0644 63.9079 75.5991 63.4426C75.1338 62.9773 74.8723 62.3462 74.8723 61.6882V2.8495H74.9418C74.9279 2.7244 74.8723 2.6132 74.8723 2.4881C74.8723 1.11895 75.9844 0.00695 77.3535 0.00695" fill="black"/>
</g>
<defs>
<clipPath id="clip0_26_280">
<rect width="139" height="139" fill="white"/>
</clipPath>
</defs>
</svg>
